<?xml version="1.0" encoding="UTF-8"?>
<svg
    width="100%"
    height="100%"
    viewBox="0 0 32 32"
    preserveAspectRatio="xMidYMid meet"
    xmlns="http://www.w3.org/2000/svg"
    version="1.1"
    >
    <path stroke="none" fill="#ffffff"
        d="M 21.375,2.5 L 16.875,1.5 L 10.125,3.375 L 7.875,6.375 L 6,12.875 L 20.75,29.375 L 26,7.125 Z "
    />
    <path stroke="none" fill="#00c07f"
        d="M 7.875,6.375 L 12.375,7.5 L 15.75,6.5 L 13.125,6.125 L 11.625,5.25 L 9,4.875 Z "
    />
    <path stroke="none" fill="#00c07f"
        d="M 7.875,6.375 L 6,12.875 L 8.625,13.5 L 8.5,11.125 L 9.75,9.125 L 9.75,6.75 Z "
    />
    <path stroke="none" fill="#00c07f"
        d="M 12.375,7.5 L 12.625,14.5 L 15.625,13.625 L 14.5,11.625 L 15.5,8.875 L 14.375,6.875 Z "
    />
    <path stroke="none" fill="#00c07f"
        d="M 19.125,5.5 L 22.625,11.625 L 23.5,10.5 L 22,8.875 L 21.125,6.375 L 19.625,4.75 Z "
    />
    <path stroke="none" fill="#00c07f"
        d="M 20.75,29.375 L 22.625,11.625 L 23.5,10.5 L 22.5,17 L 21.875,22.875 L 20.75,29.375 Z "
    />
    <path stroke="none" fill="#00c07f"
        d="M 20.75,29.375 L 12.625,14.5 L 15.625,13.625 L 17,19 L 19.5,24 L 20.75,29.375 Z "
    />
    <path stroke="none" fill="#00c07f"
        d="M 20.75,29.375 L 6,12.875 L 8.625,13.5 L 12.375,18.75 L 17,24.125 L 20.75,29.375 Z "
    />
    <path stroke="#000000" stroke-width="1" fill="none"
        d="M 21.375,2.5 L 19.125,5.5 L 12.375,7.5 L 7.875,6.375 M 19.125,5.5 L 22.625,11.625 L 20.75,29.375 M 12.375,7.5 L 12.625,14.5 L 20.75,29.375 M 6,12.875 L 12.625,14.5 L 22.625,11.625 L 26,7.125 "
    />
    <path stroke="#000000" stroke-width="1" fill="none"
        d="M 21.375,2.5 L 16.875,1.5 L 10.125,3.375 L 7.875,6.375 L 6,12.875 L 20.75,29.375 L 26,7.125 Z "
    />
</svg>
