<?xml version="1.0" encoding="UTF-8"?>
<svg
    width="100%"
    height="100%"
    viewBox="0 0 32 32"
    preserveAspectRatio="xMidYMid meet"
    xmlns="http://www.w3.org/2000/svg"
    version="1.1"
    >
    <path stroke="#000000" stroke-width="1" fill="none"
        d="M 12.5,24.5 C 12.5,22.875 13.875,21.5 15.5,21.5 S 18.5,22.875 18.5,24.5 S 17.125,27.5 15.5,27.5 S 12.5,26.125 12.5,24.5 "
    />
    <path stroke="#000000" stroke-width="1" fill="none"
        d="M 20.5,21.5 C 20.5,19.875 21.875,18.5 23.5,18.5 S 26.5,19.875 26.5,21.5 S 25.125,24.5 23.5,24.5 S 20.5,23.125 20.5,21.5 "
    />
    <path stroke="#000000" stroke-width="1" fill="none"
        d="m 16,21.5 l 0.375,-4.75 l -3.5,-2.125 l -5,-8.125 l 9,8.375 l -0.625,-12.375 l 2.875,9.25 l -0.625,4.25 l 3.375,3.125 l -3.875,-1.625 z "
    />
    <path stroke="#ff3cd2" stroke-width="2" fill="none"
        d="m 1,30 l 30,0 "
    />
</svg>
