<?xml version="1.0" encoding="UTF-8"?>
<svg
    width="100%"
    height="100%"
    viewBox="0 0 32 32"
    preserveAspectRatio="xMidYMid meet"
    xmlns="http://www.w3.org/2000/svg"
    version="1.1"
    >
    <path stroke="#999999" stroke-width="1" fill="none"
        d="M 5.375,5.375 C -0.625,11.375 -0.625,20.625 5.375,26.625 M 26.625,26.625 C 32.625,20.625 32.625,11.375 26.625,5.375 "
    />
    <path stroke="none" fill="#00ff99"
        d="M 14.5,16 C 14.5,12 8.5,11 8.5,6 L 16,6.5 L 23.5,6 C 23.5,11 17.5,12 17.5,16 Z "
    />
    <path stroke="#000000" stroke-width="1" fill="none"
        d="M 14.5,16 C 14.5,12 8.5,11 8.5,7 C 8.5,4 11,1.5 16,1.5 C 21,1.5 23.5,4 23.5,7 C 23.5,11 17.5,12 17.5,16 C 17.5,20 23.5,21 23.5,25 C 23.5,28 21,30.5 16,30.5 C 11,30.5 8.5,28 8.5,25 C 8.5,21 14.5,20 14.5,16 "
    />
</svg>
