<?xml version="1.0" encoding="UTF-8"?>
<svg
    width="100%"
    height="100%"
    viewBox="0 0 32 32"
    preserveAspectRatio="xMidYMid meet"
    xmlns="http://www.w3.org/2000/svg"
    version="1.1"
    >
    <path stroke="#000000" stroke-width="1" fill="#000000"
        d="m 16.5,19.5 c 0,0 0.625,-5.6875 1,-7 c 0.5,-1.375 0.1875,-2.125 1,-2.5 c 0.6875,-0.625 1.375,0 2,-1 c 0.6875,-1.125 0.3125,-4.125 1,-4.5 c 0.8125,-0.5 1.875,-0.5 2.5,0 c 0.6875,0.625 0.3125,3.6875 1,4.5 c 0.875,0.875 1.1875,0 2,1.5 c 0.875,1.1875 0.875,9.3125 1,9.5 l -2.5,1 l 1,8.5 l -7.5,-1 l 0,-9 z "
    />
    <path stroke="#000000" stroke-width="1" fill="none"
        d="m 17.5,29 l -2,-26.5 c -9,0.75 -12.5,3.5 -13,6.5 c 3,-2.5 5.5,-4.5 13,-4 "
    />
    <path stroke="#ff3cd2" stroke-width="2" fill="none"
        d="m 1,31 l 30,0 "
    />
</svg>
