<?xml version="1.0" encoding="UTF-8"?>
<svg
    width="100%"
    height="100%"
    viewBox="0 0 32 32"
    preserveAspectRatio="xMidYMid meet"
    xmlns="http://www.w3.org/2000/svg"
    version="1.1"
    >
    <path stroke="none" fill="#ffff44"
        d="m 6,5 c 0,-2.1875 4.5,-4 10,-4 c 5.5,0 10,1.8125 10,4 l 0,22 c 0,2.1875 -4.5,4 -10,4 c -5.5,0 -10,-1.8125 -10,-4 l 0,-22 "
    />
    <path stroke="#000000" stroke-width="1" fill="none"
        d="m 6,5 c 0,-2.1875 4.5,-4 10,-4 c 5.5,0 10,1.8125 10,4 l 0,22 c 0,2.1875 -4.5,4 -10,4 c -5.5,0 -10,-1.8125 -10,-4 l 0,-22 c 0,2.1875 4.5,4 10,4 c 5.5,0 10,-1.8125 10,-4 "
    />
    <path stroke="#000000" stroke-width="1" fill="#ffcc88"
        d="m 19.5,11.5 l 3,0 l 0,7 l 8,-2 l 0,3 l -7,2 l 4,7 l -3,1 l -3.5,-6 l -3.5,6 l -3,-1 l 4,-7 l -7,-2 l 0,-3 l 8,2 z "
    />
</svg>
