<?xml version="1.0" encoding="UTF-8"?>
<svg
    width="100%"
    height="100%"
    viewBox="0 0 32 32"
    preserveAspectRatio="xMidYMid meet"
    xmlns="http://www.w3.org/2000/svg"
    version="1.1"
    >
    <path stroke="none" fill="#7f7f7f"
        d="m 6,5 l 1.0625,1.8125 l 3.0625,1.4375 l 0,22 l -3.0625,-1.4375 l -1.0625,-1.8125 z m 20,0 l -1.9375,2.375 l 0,22 l 1.9375,-2.375 z "
    />
    <path stroke="none" fill="#ffffff"
        d="m 16,9 l 3.0625,-0.1875 l 0,22 l -3.0625,0.1875 z "
    />
    <path stroke="#000000" stroke-width="1" fill="none"
        d="m 6,5 c 0,-2.1875 4.5,-4 10,-4 c 5.5,0 10,1.8125 10,4 l 0,22 c 0,2.1875 -4.5,4 -10,4 c -5.5,0 -10,-1.8125 -10,-4 l 0,-22 c 0,2.1875 4.5,4 10,4 c 5.5,0 10,-1.8125 10,-4 "
    />
    <path stroke="#000000" stroke-width="1" fill="#00ff99"
        d="m 13,16 l 10,0 l 0,-5 l 6,8 l -6,8 l 0,-5 l -10,0 z "
    />
</svg>
