<?xml version="1.0" encoding="UTF-8"?>
<svg
    width="100%"
    height="100%"
    viewBox="0 0 32 32"
    preserveAspectRatio="xMidYMid meet"
    xmlns="http://www.w3.org/2000/svg"
    version="1.1"
    >
    <path stroke="#7f7f7f" fill="none"
        d="m 6,5 c 0,2.1875 4.5,4 10,4 c 5.5,0 10,-1.8125 10,-4 c 0,-2.1875 -4.5,-4 -10,-4 c -5.5,0 -10,1.8125 -10,4 l 0,22 c 0,2.1875 4.5,4 10,4 c 5.5,0 10,-1.8125 10,-4 l 0,-4 "
    />
    <path stroke="#7f7f7f" fill="none"
        d="m 13,18 l 3,-2 c 3,-2 6,-2 9,0 l 3,2 m -1,-4 l 2,5 l -5.5,0 "
    />
</svg>
