<?xml version="1.0" encoding="UTF-8" standalone="no"?>
<svg
   xmlns:dc="http://purl.org/dc/elements/1.1/"
   xmlns:cc="http://creativecommons.org/ns#"
   xmlns:rdf="http://www.w3.org/1999/02/22-rdf-syntax-ns#"
   xmlns:svg="http://www.w3.org/2000/svg"
   xmlns="http://www.w3.org/2000/svg"
   xmlns:sodipodi="http://sodipodi.sourceforge.net/DTD/sodipodi-0.dtd"
   xmlns:inkscape="http://www.inkscape.org/namespaces/inkscape"
   width="32"
   height="32"
   id="svg2"
   version="1.1"
   inkscape:version="1.0.1 (3bc2e813f5, 2020-09-07)"
   sodipodi:docname="message_error.svg"
   inkscape:export-filename="/home/andi/Code/crystal-facet-uml/gui/source/resources/message_error.png"
   inkscape:export-xdpi="90"
   inkscape:export-ydpi="90">
  <defs
     id="defs4">
    <inkscape:path-effect
       effect="bspline"
       id="path-effect904"
       is_visible="true"
       lpeversion="1"
       weight="33.333333"
       steps="2"
       helper_size="0"
       apply_no_weight="true"
       apply_with_weight="true"
       only_selected="false" />
    <inkscape:path-effect
       effect="bspline"
       id="path-effect1868"
       is_visible="true"
       lpeversion="1"
       weight="33.333333"
       steps="2"
       helper_size="0"
       apply_no_weight="true"
       apply_with_weight="true"
       only_selected="false" />
  </defs>
  <sodipodi:namedview
     id="base"
     pagecolor="#ffffff"
     bordercolor="#666666"
     borderopacity="1.0"
     inkscape:pageopacity="0.0"
     inkscape:pageshadow="2"
     inkscape:zoom="30.151033"
     inkscape:cx="11.354221"
     inkscape:cy="15.862411"
     inkscape:document-units="px"
     inkscape:current-layer="layer1"
     showgrid="false"
     inkscape:window-width="2560"
     inkscape:window-height="1339"
     inkscape:window-x="0"
     inkscape:window-y="0"
     inkscape:window-maximized="1"
     inkscape:document-rotation="0" />
  <metadata
     id="metadata7">
    <rdf:RDF>
      <cc:Work
         rdf:about="">
        <dc:format>image/svg+xml</dc:format>
        <dc:type
           rdf:resource="http://purl.org/dc/dcmitype/StillImage" />
        <dc:title />
      </cc:Work>
    </rdf:RDF>
  </metadata>
  <g
     inkscape:label="Ebene 1"
     inkscape:groupmode="layer"
     id="layer1"
     transform="translate(0,-1020.3622)">
    <path
       style="fill:none;fill-opacity:1;stroke:#c00000;stroke-width:1px;stroke-linecap:butt;stroke-linejoin:miter;stroke-opacity:1"
       d="m 0.48420121,9.5089707 0.0637416,13.0425673 8.88252089,8.971785 13.0228643,-0.0071 9.06081,-9.083871 L 31.468146,9.5074254 22.536244,0.52058212 9.4707557,0.5501209 Z"
       id="path3055"
       inkscape:connector-curvature="0"
       transform="translate(0,1020.3622)"
       sodipodi:nodetypes="ccccccccc" />
    <path
       sodipodi:type="arc"
       style="fill:#ffffff;fill-opacity:1;stroke:#c00000;stroke-width:1;stroke-linecap:butt;stroke-linejoin:miter;stroke-miterlimit:4;stroke-opacity:1;stroke-dasharray:none;stroke-dashoffset:0"
       id="path3853"
       sodipodi:cx="16.228893"
       sodipodi:cy="26.23077"
       sodipodi:rx="3.1894934"
       sodipodi:ry="3.0487804"
       d="m 19.418387,26.23077 a 3.1894934,3.0487804 0 1 1 -6.378987,0 3.1894934,3.0487804 0 1 1 6.378987,0 z"
       transform="translate(-0.28142589,1020.2684)" />
    <path
       style="fill:#ffffff;fill-opacity:1;stroke:#c00000;stroke-width:1px;stroke-linecap:butt;stroke-linejoin:miter;stroke-opacity:1"
       d="m 15.947467,1040.0733 -3.846154,-12.5704 c -1.188243,-3.7211 9.068168,-3.9712 7.692308,0.094 z"
       id="path3855"
       inkscape:connector-curvature="0"
       sodipodi:nodetypes="cccc" />
    <path
       style="fill:none;fill-rule:evenodd;stroke:#c00000;stroke-width:1px;stroke-linecap:butt;stroke-linejoin:miter;stroke-opacity:1"
       d="m 16.865141,1020.9014 c 0.92754,-0.013 2.781775,-0.039 4.032024,0.091 1.250248,0.1304 1.895826,0.4167 3.376764,1.734 1.480938,1.3173 3.791918,3.6602 5.166947,5.202 1.375028,1.5418 1.811605,2.2791 2.029574,4.4572 0.217969,2.1782 0.21697,5.7869 0.0058,7.9597 -0.211135,2.1727 -0.63222,2.9058 -1.989774,4.4116 -1.357553,1.5057 -3.651695,3.7843 -5.118068,5.1177 -1.466374,1.3335 -2.105285,1.7221 -4.297912,1.9148 -2.192627,0.1928 -5.939147,0.1894 -8.129474,0 -2.1903264,-0.1867 -2.8239141,-0.5574 -4.3135522,-1.9128 -1.4896381,-1.3555 -3.8347285,-3.6955 -5.1593598,-5.21 -1.3246313,-1.5145 -1.6279117,-2.2031 -1.7834845,-4.3599 -0.15557281,-2.1569 -0.16282714,-5.781 0.0197579,-7.9436 0.18258507,-2.1626 0.55515157,-2.8624 1.91270347,-4.3969 1.3575519,-1.5345 3.7013567,-3.9047 5.3220838,-5.2179 1.620727,-1.3133 2.5224553,-1.5732 3.7357553,-1.7029 1.2133,-0.1298 2.738515,-0.1298 3.500578,-0.1298 0.762062,0 0.762062,-0 1.689602,-0.017 z"
       id="path1866"
       sodipodi:nodetypes="cccccccccccccccccc"
       inkscape:original-d="m 15.937601,1020.9146 c 1.855099,-0.025 3.709325,-0.052 5.562491,-0.079 0.64714,0.2875 1.292681,0.5739 1.938418,0.8597 2.316378,2.3483 4.627325,4.6912 6.939543,7.0353 0.438129,0.7393 0.874726,1.4766 1.311367,2.2147 6e-6,3.6184 -9.86e-4,7.2271 -0.003,10.8392 -0.420101,0.7341 -0.841197,1.4672 -1.263301,2.1994 -2.29316,2.2796 -4.587273,4.5582 -6.882409,6.8357 -0.637927,0.3896 -1.276832,0.7782 -1.916782,1.1658 -3.746027,0 -7.49255,0 -11.240675,-0.01 -0.6326988,-0.3698 -1.266301,-0.7405 -1.9009776,-1.1123 -2.3443753,-2.3394 -4.6895124,-4.6794 -7.0359322,-7.0208 -0.3023481,-0.6878 -0.60565468,-1.3764 -0.91000198,-2.0662 -0.006255,-3.6237 -0.0135099,-7.2478 -0.0217654,-10.8735 0.3736238,-0.6989 0.74618568,-1.3987 1.11780988,-2.0996 2.3432841,-2.3677 4.6871077,-4.7379 7.0265137,-7.1057 0.9013773,-0.2585 1.8031036,-0.5184 2.7031686,-0.7791 1.526193,-10e-5 3.051408,-0 4.575533,-0 z"
       inkscape:path-effect="#path-effect1868" />
    <path
       style="fill:none;fill-rule:evenodd;stroke:#c00000;stroke-width:1.00309;stroke-linecap:butt;stroke-linejoin:miter;stroke-miterlimit:4;stroke-dasharray:none;stroke-opacity:0.466667"
       d="m 16.76908,1021.8274 c 0.870863,-0.012 2.611813,-0.037 3.785678,0.085 1.173865,0.1224 1.779993,0.391 3.170418,1.6268 1.390426,1.2358 3.5602,3.4336 4.851223,4.88 1.291023,1.4464 1.700943,2.1381 1.904476,4.2049 0.203534,2.0669 0.200371,5.4993 0.0021,7.5376 -0.198242,2.0384 -0.591273,2.6789 -1.841455,4.0806 -1.250182,1.4017 -3.357356,3.5644 -4.73413,4.8154 -1.376775,1.251 -2.023318,1.5902 -4.10536,1.7583 -2.082042,0.1681 -5.599645,0.1647 -7.656119,-0.01 -2.056475,-0.1753 -2.6513768,-0.523 -4.0499975,-1.7946 -1.3986207,-1.2715 -3.6004315,-3.4667 -4.8441226,-4.8875 -1.243691,-1.4207 -1.5284498,-2.0667 -1.6745176,-4.0901 -0.1460679,-2.0233 -0.1528805,-5.4231 0.018542,-7.4519 0.1714228,-2.0287 0.5212372,-2.6852 1.7958521,-4.1247 1.274615,-1.4395 3.4752111,-3.663 4.9969098,-4.895 1.5216986,-1.2319 2.3683234,-1.4757 3.5074804,-1.5975 1.139156,-0.1217 2.571179,-0.1217 3.286678,-0.1217 0.715499,0 0.715451,-0 1.586314,-0.015 z"
       id="path1866-3"
       sodipodi:nodetypes="ccccccccccccccccccc"
       inkscape:original-d="m 15.898217,1021.8397 c 1.74175,-0.023 3.482681,-0.049 5.222616,-0.074 0.607599,0.2698 1.213696,0.5385 1.819978,0.8066 2.174844,2.2029 4.34459,4.4008 6.515528,6.5999 0.411359,0.6935 0.821279,1.3852 1.231241,2.0776 -0.0022,3.4415 -0.0054,6.8739 -0.0095,10.3096 -0.392141,0.6417 -0.785193,1.2822 -1.179376,1.922 -2.106303,2.1639 -4.213504,4.3266 -6.321834,6.4885 -0.645587,0.3403 -1.292158,0.6795 -1.939715,1.0178 -3.51714,0 -7.034746,0 -10.553855,-0.01 -0.59404,-0.3468 -1.1889283,-0.6946 -1.7848246,-1.0434 -2.2011316,-2.1946 -4.4029777,-4.3898 -6.6060284,-6.5863 -0.2838742,-0.6452 -0.5686478,-1.2912 -0.8543998,-1.9383 -0.00591,-3.3994 -0.012684,-6.7992 -0.02044,-10.2005 0.3507951,-0.6556 0.700593,-1.3121 1.0495103,-1.9696 2.2001064,-2.2212 4.4007197,-4.4447 6.597185,-6.6659 0.8463016,-0.2426 1.6929305,-0.4864 2.5380005,-0.7309 1.432941,-10e-5 2.864964,0 4.295962,0 z"
       inkscape:path-effect="#path-effect904" />
  </g>
</svg>
