<?xml version="1.0" encoding="UTF-8"?>
<svg
    width="100%"
    height="100%"
    viewBox="0 0 32 32"
    preserveAspectRatio="xMidYMid meet"
    xmlns="http://www.w3.org/2000/svg"
    version="1.1"
    >
    <path stroke="#ff3f3f" stroke-width="2" fill="none"
        d="M 11,3 L 21,3 L 29,11 L 29,21 L 21,29 L 11,29 L 3,21 L 3,11 Z "
    />
    <path stroke="#ff3f3f" stroke-width="1" fill="none"
        d="M 13.5,10 C 13.5,8.625 14.625,7.5 16,7.5 L 16,7.5 C 17.375,7.5 18.5,8.625 18.5,10 L 18.5,14 C 18.5,15.375 17.375,16.5 16,16.5 L 16,16.5 C 14.625,16.5 13.5,15.375 13.5,14 Z "
    />
    <path stroke="#ff3f3f" stroke-width="1" fill="none"
        d="M 13.5,22 C 13.5,20.625 14.625,19.5 16,19.5 S 18.5,20.625 18.5,22 S 17.375,24.5 16,24.5 S 13.5,23.375 13.5,22 "
    />
</svg>
