<?xml version="1.0" encoding="UTF-8"?>
<svg
    width="100%"
    height="100%"
    viewBox="0 0 32 16"
    preserveAspectRatio="xMidYMid meet"
    xmlns="http://www.w3.org/2000/svg"
    version="1.1"
    >
    <path stroke="none" fill="#ffffff" d="M 0,0 L 15,0 L 15,16 L 0,16 Z " /><path stroke="#000000" stroke-width="1" fill="none" d="M 1,1.5 l 2,0 m 2,0 l 9,0 M 1,3.5 l 2,0 m 2,0 l 9,0 M 1,5.5 l 2,0 m 2,0 l 9,0 M 4,11.5 l 7,0 m -3.5,-3.5 l 0,7 " /><path stroke="none" fill="#ffffff" d="M 18,16 L 18,6.5 C 18,4.5 20.5,2 22.5,2 L 26,2 L 26,0 L 27,0 L 32,3.5 L 27,7 L 26,7 L 26,5 L 23.5,5 C 22,5 21,6.5 21,8.5 L 21,16 Z " /><path stroke="none" fill="#000000" d="M 19,15 L 19,7 C 19,5 21,3 23,3 L 27,3 L 27,1 L 30.5,3.5 L 27,6 L 27,4 L 23.5,4 C 21.5,4 20,5.5 20,7.5 L 20,15 Z " />
</svg>
