<?xml version="1.0" encoding="UTF-8"?>
<svg
    width="100%"
    height="100%"
    viewBox="0 0 32 16"
    preserveAspectRatio="xMidYMid meet"
    xmlns="http://www.w3.org/2000/svg"
    version="1.1"
    >
    <path stroke="none" fill="#bfffbf" d="M 17,16 L 17,10.5 C 17,7.5 19.5,5 22.5,5 L 25,5 L 25,1 L 32,6.5 L 25,12 L 25,8 L 23.5,8 C 21.5,8 20,9.5 20,12.5 L 20,16 Z " /><path stroke="none" fill="#000000" d="M 18,15 L 18,11 C 18,8 20,6 23,6 L 26,6 L 26,3 L 30.5,6.5 L 26,10 L 26,7 L 23.5,7 C 21.5,7 19,8.5 19,11.5 L 19,15 Z " />
</svg>
