<?xml version="1.0" encoding="UTF-8" standalone="no"?>
<!-- Created with Inkscape (http://www.inkscape.org/) -->

<svg
   xmlns:dc="http://purl.org/dc/elements/1.1/"
   xmlns:cc="http://creativecommons.org/ns#"
   xmlns:rdf="http://www.w3.org/1999/02/22-rdf-syntax-ns#"
   xmlns:svg="http://www.w3.org/2000/svg"
   xmlns="http://www.w3.org/2000/svg"
   xmlns:sodipodi="http://sodipodi.sourceforge.net/DTD/sodipodi-0.dtd"
   xmlns:inkscape="http://www.inkscape.org/namespaces/inkscape"
   width="32"
   height="32"
   id="svg2"
   version="1.1"
   inkscape:version="0.48.5 r10040"
   sodipodi:docname="tool_create_object.svg"
   inkscape:export-filename="/home/andi/Code/crystal-facet-uml-code/gui/source/resources/tool_create_object.png"
   inkscape:export-xdpi="90"
   inkscape:export-ydpi="90">
  <defs
     id="defs4" />
  <sodipodi:namedview
     id="base"
     pagecolor="#ffffff"
     bordercolor="#666666"
     borderopacity="1.0"
     inkscape:pageopacity="0.0"
     inkscape:pageshadow="2"
     inkscape:zoom="10.66"
     inkscape:cx="-13.465946"
     inkscape:cy="15.768602"
     inkscape:document-units="px"
     inkscape:current-layer="layer1"
     showgrid="false"
     inkscape:window-width="1600"
     inkscape:window-height="1145"
     inkscape:window-x="-2"
     inkscape:window-y="-3"
     inkscape:window-maximized="1" />
  <metadata
     id="metadata7">
    <rdf:RDF>
      <cc:Work
         rdf:about="">
        <dc:format>image/svg+xml</dc:format>
        <dc:type
           rdf:resource="http://purl.org/dc/dcmitype/StillImage" />
        <dc:title />
      </cc:Work>
    </rdf:RDF>
  </metadata>
  <g
     inkscape:label="Ebene 1"
     inkscape:groupmode="layer"
     id="layer1"
     transform="translate(0,-1020.3622)">
    <path
       sodipodi:type="arc"
       style="fill:#ffffff;fill-opacity:1;stroke:#000000;stroke-width:1;stroke-linecap:butt;stroke-linejoin:miter;stroke-miterlimit:4;stroke-opacity:1;stroke-dasharray:none;stroke-dashoffset:0"
       id="path3121"
       sodipodi:cx="15.712946"
       sodipodi:cy="16.052532"
       sodipodi:rx="15.525329"
       sodipodi:ry="15.572232"
       d="m 31.238275,16.052532 c 0,8.600307 -6.950927,15.572232 -15.525329,15.572232 -8.5744023,0 -15.5253287,-6.971925 -15.5253287,-15.572232 0,-8.6003062 6.9509264,-15.57223205 15.5253287,-15.57223205 8.574402,0 15.525329,6.97192585 15.525329,15.57223205 z"
       transform="matrix(1.0100604,0,0,1,0.18572975,1020.3622)" />
    <path
       sodipodi:type="arc"
       style="opacity:0.02000002;fill:#775f00;fill-opacity:1;stroke:#777777;stroke-width:1;stroke-linecap:butt;stroke-linejoin:miter;stroke-miterlimit:4;stroke-opacity:0.94117647;stroke-dasharray:none;stroke-dashoffset:0"
       id="path3815"
       sodipodi:cx="-0.51594746"
       sodipodi:cy="-1.771107"
       sodipodi:rx="2.2045028"
       sodipodi:ry="1.8761727"
       d="m 1.6885554,-1.771107 c 0,1.03618159 -0.98698957,1.8761727 -2.20450286,1.8761727 -1.21751334,0 -2.20450284,-0.83999111 -2.20450284,-1.8761727 0,-1.0361815 0.9869895,-1.8761726 2.20450284,-1.8761726 1.21751329,0 2.20450286,0.8399911 2.20450286,1.8761726 z"
       transform="translate(0,1020.3622)" />
    <path
       style="fill:#00ff9b;fill-opacity:1;stroke:#000000;stroke-width:1;stroke-linecap:butt;stroke-linejoin:miter;stroke-miterlimit:4;stroke-opacity:1;stroke-dasharray:none"
       d="m 17.666366,1043.8852 0.265973,-5.4559 c 0,0 3.836799,-0.7904 5.718447,1.6221 1.881649,2.4123 0.155923,3.7711 -2.127795,3.2441 -2.283717,-0.5272 -3.723638,-5.3087 -3.723638,-5.3087 0,0 -1.949967,-3.3329 -4.122601,-4.1287 -2.172635,-0.7956 -3.8661901,1.3911 -2.526755,3.2441 1.339436,1.8528 6.91533,1.3271 6.91533,1.3271 l -0.265974,-10.6169 c 0,0 -3.268063,-0.2068 -3.590651,2.5069 -0.322591,2.7134 1.581769,2.5688 2.792728,1.4745 1.210959,-1.0944 0.398961,-4.5713 0.398961,-4.5713 0,0 0.273551,-2.5098 1.462857,-3.0966 1.189309,-0.5865 4.433183,0.4651 3.058705,2.0646 -1.374479,1.5994 -4.388576,1.1795 -4.388576,1.1795"
       id="path3827"
       inkscape:connector-curvature="0"
       sodipodi:nodetypes="cczzczzcczzczzc" />
    <path
       style="fill:#775f00;fill-opacity:1;stroke:#000000;stroke-width:1;stroke-linecap:butt;stroke-linejoin:miter;stroke-miterlimit:4;stroke-opacity:1;stroke-dasharray:none"
       d="m 17.700802,1043.8795 c -0.02151,-1.6587 -2.24571,-2.9488 -6.17297,-3.0259 -3.9272592,-0.077 -6.7743169,1.1816 -6.7144577,2.7738 0.05986,1.5921 2.7601959,2.6988 6.6061597,3.152 3.845965,0.4532 6.302772,-1.2412 6.281268,-2.8999 z"
       id="path3819"
       inkscape:connector-curvature="0"
       sodipodi:nodetypes="zzzzz" />
    <path
       style="fill:none;stroke:#000000;stroke-width:1px;stroke-linecap:butt;stroke-linejoin:miter;stroke-opacity:1"
       d="m 9.4746717,22.243902 c 2.9661493,-0.83982 4.2769133,-0.493298 5.7223263,0.656661"
       id="path3784"
       inkscape:connector-curvature="0"
       transform="translate(0,1020.3622)"
       sodipodi:nodetypes="cc" />
  </g>
</svg>
