<?xml version="1.0" encoding="UTF-8" standalone="no"?>
<!-- Created with Inkscape (http://www.inkscape.org/) -->

<svg
   xmlns:dc="http://purl.org/dc/elements/1.1/"
   xmlns:cc="http://creativecommons.org/ns#"
   xmlns:rdf="http://www.w3.org/1999/02/22-rdf-syntax-ns#"
   xmlns:svg="http://www.w3.org/2000/svg"
   xmlns="http://www.w3.org/2000/svg"
   xmlns:sodipodi="http://sodipodi.sourceforge.net/DTD/sodipodi-0.dtd"
   xmlns:inkscape="http://www.inkscape.org/namespaces/inkscape"
   width="32"
   height="32"
   id="svg2"
   version="1.1"
   inkscape:version="0.48.5 r10040"
   sodipodi:docname="tool_create_object.svg"
   inkscape:export-filename="/home/andi/Code/crystal-facet-uml-code/gui/source/resources/tool_create_object.png"
   inkscape:export-xdpi="90"
   inkscape:export-ydpi="90">
  <defs
     id="defs4" />
  <sodipodi:namedview
     id="base"
     pagecolor="#ffffff"
     bordercolor="#666666"
     borderopacity="1.0"
     inkscape:pageopacity="0.0"
     inkscape:pageshadow="2"
     inkscape:zoom="10.66"
     inkscape:cx="19.722326"
     inkscape:cy="15.768602"
     inkscape:document-units="px"
     inkscape:current-layer="layer1"
     showgrid="false"
     inkscape:window-width="1600"
     inkscape:window-height="1125"
     inkscape:window-x="0"
     inkscape:window-y="0"
     inkscape:window-maximized="1" />
  <metadata
     id="metadata7">
    <rdf:RDF>
      <cc:Work
         rdf:about="">
        <dc:format>image/svg+xml</dc:format>
        <dc:type
           rdf:resource="http://purl.org/dc/dcmitype/StillImage" />
        <dc:title />
      </cc:Work>
    </rdf:RDF>
  </metadata>
  <g
     inkscape:label="Ebene 1"
     inkscape:groupmode="layer"
     id="layer1"
     transform="translate(0,-1020.3622)">
    <path
       sodipodi:type="arc"
       style="fill:#ffffff;fill-opacity:1;stroke:#000000;stroke-width:1;stroke-linecap:butt;stroke-linejoin:miter;stroke-miterlimit:4;stroke-opacity:1;stroke-dasharray:none;stroke-dashoffset:0"
       id="path3121"
       sodipodi:cx="15.712946"
       sodipodi:cy="16.052532"
       sodipodi:rx="15.525329"
       sodipodi:ry="15.572232"
       d="m 31.238275,16.052532 c 0,8.600307 -6.950927,15.572232 -15.525329,15.572232 -8.5744023,0 -15.5253287,-6.971925 -15.5253287,-15.572232 0,-8.6003062 6.9509264,-15.57223205 15.5253287,-15.57223205 8.574402,0 15.525329,6.97192585 15.525329,15.57223205 z"
       transform="matrix(1.0100604,0,0,1,0.18572975,1020.3622)" />
    <path
       sodipodi:type="arc"
       style="opacity:0.02000002;fill:#775f00;fill-opacity:1;stroke:#777777;stroke-width:1;stroke-linecap:butt;stroke-linejoin:miter;stroke-miterlimit:4;stroke-opacity:0.94117647;stroke-dasharray:none;stroke-dashoffset:0"
       id="path3815"
       sodipodi:cx="-0.51594746"
       sodipodi:cy="-1.771107"
       sodipodi:rx="2.2045028"
       sodipodi:ry="1.8761727"
       d="m 1.6885554,-1.771107 c 0,1.03618159 -0.98698957,1.8761727 -2.20450286,1.8761727 -1.21751334,0 -2.20450284,-0.83999111 -2.20450284,-1.8761727 0,-1.0361815 0.9869895,-1.8761726 2.20450284,-1.8761726 1.21751329,0 2.20450286,0.8399911 2.20450286,1.8761726 z"
       transform="translate(0,1020.3622)" />
    <path
       style="fill:#00ff9b;fill-opacity:1;stroke:#000000;stroke-width:1;stroke-linecap:butt;stroke-linejoin:miter;stroke-miterlimit:4;stroke-opacity:1;stroke-dasharray:none"
       d="m 15.97781,1050.3581 0.07836,-5.2683 c 0,0 0.178263,-3.5108 4.217509,-5.3197 4.039247,-1.8089 4.002077,0.5815 1.061699,2.775 -2.940378,2.1934 -5.506003,2.665 -5.506003,2.665 0,0 -0.730453,-4.9278 -4.028792,-6.6615 -3.2983386,-1.7337 -2.9281036,0.5468 -0.8382,3.2441 2.089904,2.6973 4.945349,3.2033 4.945349,3.2033 l -0.172165,-9.6788 c 0,0 -0.172379,-1.7078 -1.995904,-2.934 -1.823526,-1.2263 -3.108662,-0.2453 -1.428661,1.6621 1.680001,1.9075 3.494646,1.0572 3.494646,1.0572 0,0 -0.758347,-1.9473 2.025709,-3.7533 2.784055,-1.806 2.369392,0.7466 0.713489,2.1585 -1.655904,1.4118 -2.981447,1.7423 -2.981447,1.7423"
       id="path3827"
       inkscape:connector-curvature="0"
       sodipodi:nodetypes="cczzczzcczzczzc" />
  </g>
</svg>
