<?xml version="1.0" encoding="UTF-8"?>
<svg
    width="100%"
    height="100%"
    viewBox="0 0 32 24"
    preserveAspectRatio="xMidYMid meet"
    xmlns="http://www.w3.org/2000/svg"
    version="1.1"
    >
    <path stroke="#7f7f7f" fill="none" d="M 26,12 l -1.5,0.25 l -0.4375,2.375 l 1.3125,0.75 l 0.6875,1 l -0.8125,1.5 l -1.1875,-0 l -1.375,-0.6875 l -1.75,1.6875 l 0.625,1.375 l -0,1.1875 l -1.5625,0.75 l -0.9375,-0.6875 l -0.6875,-1.375 l -2.375,0.3125 l -0.3125,1.5 l -0.75,0.9375 l -1.6875,-0.3125 l -0.375,-1.125 l 0.1875,-1.5 l -2.125,-1.125 l -1.125,1 l -1.125,0.375 l -1.1875,-1.25 l 0.375,-1.125 l 1.0625,-1.125 l -1.0625,-2.125 l -1.5,0.1875 l -1.125,-0.375 l -0.25,-1.6875 l 1,-0.6875 l 1.5,-0.25 l 0.4375,-2.375 l -1.3125,-0.75 l -0.6875,-1 l 0.8125,-1.5 l 1.1875,0 l 1.375,0.6875 l 1.75,-1.6875 l -0.625,-1.375 l 0,-1.1875 l 1.5625,-0.75 l 0.9375,0.6875 l 0.6875,1.375 l 2.375,-0.3125 l 0.3125,-1.5 l 0.75,-0.9375 l 1.6875,0.3125 l 0.375,1.125 l -0.1875,1.5 l 2.125,1.125 l 1.125,-1 l 1.125,-0.375 l 1.1875,1.25 l -0.375,1.125 l -1.0625,1.125 l 1.0625,2.125 l 1.5,-0.1875 l 1.125,0.375 l 0.25,1.6875 l -1,0.6875 " /><path stroke="#7f7f7f" fill="none" d="M 14,12 C 14,10.875 14.875,10 16,10 S 18,10.875 18,12 S 17.125,14 16,14 S 14,13.125 14,12 " />
</svg>
