<?xml version="1.0" encoding="UTF-8" standalone="no"?>
<svg
   xmlns:dc="http://purl.org/dc/elements/1.1/"
   xmlns:cc="http://creativecommons.org/ns#"
   xmlns:rdf="http://www.w3.org/1999/02/22-rdf-syntax-ns#"
   xmlns:svg="http://www.w3.org/2000/svg"
   xmlns="http://www.w3.org/2000/svg"
   xmlns:sodipodi="http://sodipodi.sourceforge.net/DTD/sodipodi-0.dtd"
   xmlns:inkscape="http://www.inkscape.org/namespaces/inkscape"
   width="32"
   height="24"
   id="svg2"
   version="1.1"
   inkscape:version="1.0.2 (e86c870879, 2021-01-15)"
   sodipodi:docname="type_diag_profile.svg"
   inkscape:export-filename="/home/pi/Code/crystal_facet_uml/gui/source/resources/type_diag_profile.png"
   inkscape:export-xdpi="96"
   inkscape:export-ydpi="96">
  <defs
     id="defs4">
    <inkscape:path-effect
       effect="bspline"
       id="path-effect2387"
       is_visible="true"
       lpeversion="1"
       weight="33.333333"
       steps="2"
       helper_size="0"
       apply_no_weight="true"
       apply_with_weight="true"
       only_selected="false" />
    <inkscape:path-effect
       effect="bspline"
       id="path-effect2274"
       is_visible="true"
       lpeversion="1"
       weight="33.333333"
       steps="2"
       helper_size="0"
       apply_no_weight="true"
       apply_with_weight="true"
       only_selected="false" />
    <inkscape:path-effect
       effect="bspline"
       id="path-effect1613"
       is_visible="true"
       lpeversion="1"
       weight="33.333333"
       steps="2"
       helper_size="0"
       apply_no_weight="true"
       apply_with_weight="true"
       only_selected="false" />
  </defs>
  <sodipodi:namedview
     id="base"
     pagecolor="#ffffff"
     bordercolor="#666666"
     borderopacity="1.0"
     inkscape:pageopacity="0.0"
     inkscape:pageshadow="2"
     inkscape:zoom="56.233085"
     inkscape:cx="15.772681"
     inkscape:cy="13.32841"
     inkscape:document-units="px"
     inkscape:current-layer="layer1"
     showgrid="false"
     inkscape:window-width="2558"
     inkscape:window-height="1374"
     inkscape:window-x="0"
     inkscape:window-y="0"
     inkscape:window-maximized="0"
     inkscape:document-rotation="0" />
  <metadata
     id="metadata7">
    <rdf:RDF>
      <cc:Work
         rdf:about="">
        <dc:format>image/svg+xml</dc:format>
        <dc:type
           rdf:resource="http://purl.org/dc/dcmitype/StillImage" />
        <dc:title />
      </cc:Work>
    </rdf:RDF>
  </metadata>
  <g
     inkscape:label="Ebene 1"
     inkscape:groupmode="layer"
     id="layer1"
     transform="translate(0,0)">
    <path
       stroke="#7f7f7f"
       fill="none"
       d="m 18.31328,11.992789 c 0,-0.891368 0.692123,-1.584655 1.581995,-1.584655 0.889872,0 1.581995,0.693287 1.581995,1.584655 0,0.891369 -0.692123,1.584655 -1.581995,1.584655 -0.889872,0 -1.581995,-0.693286 -1.581995,-1.584655"
       id="path881"
       style="stroke-width:1;stroke-miterlimit:4;stroke-dasharray:none" />
    <rect
       style="fill:none;stroke:#7f7f7f;stroke-width:1;stroke-miterlimit:4;stroke-dasharray:none;stroke-opacity:1"
       id="rect4554"
       width="29.0"
       height="21.0"
       x="1.5"
       y="1.5" />
    <path
       style="fill:none;stroke:#7f7f7f;stroke-width:1px;stroke-linecap:butt;stroke-linejoin:miter;stroke-opacity:1"
       d="m 1.5,4.5 h 10.0 l 1.0,-1.0 v -2.0 0"
       id="path4556"
       inkscape:connector-curvature="0"
       sodipodi:nodetypes="ccccc" />
    <path
       stroke="#7f7f7f"
       fill="none"
       d="m 27.805249,11.992789 -1.186497,0.198082 -0.346061,1.881778 1.038184,0.594246 0.543811,0.792328 -0.642685,1.188491 h -0.93931 l -1.087621,-0.544725 -1.384246,1.337053 0.494373,1.08945 v 0.940889 l -1.235933,0.594246 -0.74156,-0.544725 -0.54381,-1.08945 -1.878619,0.247602 -0.247187,1.188492 -0.593248,0.742807 -1.334808,-0.247603 -0.296624,-0.891369 0.148313,-1.188491 -1.68087,-0.891369 -0.889872,0.792328 -0.889872,0.297123 -0.939309,-0.99041 0.296624,-0.891369 0.840435,-0.891368 -0.840435,-1.683696 -1.186496,0.148561 -0.889873,-0.297123 -0.197749,-1.337052 0.790998,-0.544726 1.186496,-0.198081 L 13.517859,9.91293 12.479675,9.3186845 11.935865,8.526357 12.57855,7.3378651 h 0.939309 l 1.087622,0.5447253 1.384245,-1.337053 -0.494374,-1.0894505 V 4.5151978 l 1.235933,-0.5942458 0.741561,0.5447253 0.54381,1.0894506 1.878619,-0.2476024 0.247187,-1.1884915 0.593248,-0.7428072 1.334808,0.2476024 0.296623,0.8913686 -0.148311,1.1884915 1.680869,0.8913686 0.889872,-0.7923276 0.889872,-0.2971229 0.939309,0.9904095 -0.296624,0.8913687 -0.840434,0.891369 0.840434,1.6836957 1.186497,-0.1485609 0.889871,0.2971216 0.19775,1.337053 -0.790997,0.544725"
       id="path879"
       style="stroke-width:1;stroke-miterlimit:4;stroke-dasharray:none" />
  </g>
</svg>
