<?xml version="1.0" encoding="UTF-8" standalone="no"?>
<svg
   xmlns:dc="http://purl.org/dc/elements/1.1/"
   xmlns:cc="http://creativecommons.org/ns#"
   xmlns:rdf="http://www.w3.org/1999/02/22-rdf-syntax-ns#"
   xmlns:svg="http://www.w3.org/2000/svg"
   xmlns="http://www.w3.org/2000/svg"
   xmlns:sodipodi="http://sodipodi.sourceforge.net/DTD/sodipodi-0.dtd"
   xmlns:inkscape="http://www.inkscape.org/namespaces/inkscape"
   width="32"
   height="24"
   id="svg2"
   version="1.1"
   inkscape:version="1.0.2 (e86c870879, 2021-01-15)"
   sodipodi:docname="type_clas_stereotype.svg"
   inkscape:export-filename="/home/berrydisk/andi/Code/crystal-facet-uml/gui/source/resources/type_clas_stereotype.png"
   inkscape:export-xdpi="96"
   inkscape:export-ydpi="96">
  <defs
     id="defs4">
    <inkscape:path-effect
       effect="bspline"
       id="path-effect2297"
       is_visible="true"
       lpeversion="1"
       weight="33.333333"
       steps="2"
       helper_size="0"
       apply_no_weight="true"
       apply_with_weight="true"
       only_selected="false" />
    <inkscape:path-effect
       effect="bspline"
       id="path-effect2274"
       is_visible="true"
       lpeversion="1"
       weight="33.333333"
       steps="2"
       helper_size="0"
       apply_no_weight="true"
       apply_with_weight="true"
       only_selected="false" />
    <inkscape:path-effect
       effect="bspline"
       id="path-effect2269"
       is_visible="true"
       lpeversion="1"
       weight="33.333333"
       steps="2"
       helper_size="0"
       apply_no_weight="true"
       apply_with_weight="true"
       only_selected="false" />
    <inkscape:path-effect
       effect="bspline"
       id="path-effect2234"
       is_visible="true"
       lpeversion="1"
       weight="33.333333"
       steps="2"
       helper_size="0"
       apply_no_weight="true"
       apply_with_weight="true"
       only_selected="false" />
    <inkscape:path-effect
       effect="bspline"
       id="path-effect1613"
       is_visible="true"
       lpeversion="1"
       weight="33.333333"
       steps="2"
       helper_size="0"
       apply_no_weight="true"
       apply_with_weight="true"
       only_selected="false" />
    <inkscape:path-effect
       effect="bspline"
       id="path-effect4556"
       is_visible="true"
       weight="33.333333"
       steps="2"
       helper_size="0"
       apply_no_weight="true"
       apply_with_weight="true"
       only_selected="false" />
  </defs>
  <sodipodi:namedview
     id="base"
     pagecolor="#ffffff"
     bordercolor="#666666"
     borderopacity="1.0"
     inkscape:pageopacity="0.0"
     inkscape:pageshadow="2"
     inkscape:zoom="60.264889"
     inkscape:cx="15.009577"
     inkscape:cy="12.948224"
     inkscape:document-units="px"
     inkscape:current-layer="layer1"
     showgrid="false"
     inkscape:window-width="2798"
     inkscape:window-height="1897"
     inkscape:window-x="95"
     inkscape:window-y="132"
     inkscape:window-maximized="0"
     inkscape:document-rotation="0" />
  <metadata
     id="metadata7">
    <rdf:RDF>
      <cc:Work
         rdf:about="">
        <dc:format>image/svg+xml</dc:format>
        <dc:type
           rdf:resource="http://purl.org/dc/dcmitype/StillImage" />
        <dc:title />
      </cc:Work>
    </rdf:RDF>
  </metadata>
  <g
     inkscape:label="Ebene 1"
     inkscape:groupmode="layer"
     id="layer1"
     transform="translate(0,0)">
    <ellipse
       style="fill:#ffffff;stroke:#7f7f7f;stroke-width:1.14596;stroke-miterlimit:4;stroke-dasharray:none"
       id="path2390"
       cx="16.052246"
       cy="12.018788"
       rx="1.3134295"
       ry="1.3940111" />
    <path
       style="fill:none;fill-rule:evenodd;stroke:#7f7f7f;stroke-width:1px;stroke-linecap:butt;stroke-linejoin:miter;stroke-opacity:1"
       d="m 22.318861,10.484995 c 0,0 0.0087,3.009771 0.0087,3.009771 0,0 3.711384,2.544481 3.711384,2.544481 0,0 -1.393954,2.505646 -1.393954,2.505646 0,0 -3.853516,-1.855949 -3.853516,-1.855949 0,0 -3.081667,1.256471 -3.081667,1.256471 0,0 -0.460571,4.29887 -0.460571,4.29887 0,0 -2.802692,0.05478 -2.802692,0.05478 0,0 -0.399634,-4.423291 -0.399634,-4.423291 0,0 -2.778898,-1.680271 -2.778898,-1.680271 0,0 -4.26575,2.007858 -4.26575,2.007858 0,0 -1.2412173,-2.388855 -1.2412173,-2.388855 0,0 3.974862,-2.566493 3.974862,-2.566493 0,0 -0.039257,-3.3290138 -0.039257,-3.3290138 0,0 -3.4940542,-2.5651999 -3.4940542,-2.5651999 0,0 1.3269441,-2.2038346 1.3269441,-2.2038346 0,0 4.1094624,2.115199 4.1094624,2.115199 0,0 2.687831,-1.2404455 2.687831,-1.2404455 0,0 0.460571,-4.2988699 0.460571,-4.2988699 0,0 2.802692,-0.054783 2.802692,-0.054783 0,0 0.399631,4.4232906 0.399631,4.4232906 0,0 2.534348,1.2402399 2.534348,1.2402399 0,0 4.218791,-1.9084943 4.218791,-1.9084943 0,0 1.334903,2.7139624 1.334903,2.7139624 0,0 -3.758908,2.3449311 -3.758908,2.3449311 0,0 -1e-6,0 -1e-6,0 z"
       id="path2272"
       inkscape:path-effect="#path-effect2274"
       inkscape:original-d="m 22.318861,10.484995 0.0087,3.009771 3.711384,2.544481 -1.393954,2.505646 -3.853516,-1.855949 -3.081667,1.256471 -0.460571,4.29887 -2.802692,0.05478 -0.399634,-4.423291 -2.778898,-1.680271 -4.26575,2.007858 -1.2412173,-2.388855 3.974862,-2.566493 -0.039257,-3.3290138 -3.4940542,-2.5651999 1.3269441,-2.2038346 4.1094628,2.115199 2.687831,-1.2404455 0.460571,-4.2988699 2.802692,-0.054783 0.399631,4.4232906 2.534348,1.2402399 4.218791,-1.9084943 1.334903,2.7139624 -3.758908,2.3449311 z"
       sodipodi:nodetypes="cccccccccccccccccccccccccc" />
  </g>
</svg>
