<?xml version="1.0" encoding="UTF-8" standalone="no"?>
<!-- Created with Inkscape (http://www.inkscape.org/) -->

<svg
   xmlns:dc="http://purl.org/dc/elements/1.1/"
   xmlns:cc="http://creativecommons.org/ns#"
   xmlns:rdf="http://www.w3.org/1999/02/22-rdf-syntax-ns#"
   xmlns:svg="http://www.w3.org/2000/svg"
   xmlns="http://www.w3.org/2000/svg"
   xmlns:sodipodi="http://sodipodi.sourceforge.net/DTD/sodipodi-0.dtd"
   xmlns:inkscape="http://www.inkscape.org/namespaces/inkscape"
   width="32"
   height="24"
   id="svg2"
   version="1.1"
   inkscape:version="0.92.1 r15371"
   sodipodi:docname="type_diag_usecase.svg"
   inkscape:export-filename="/home/pi/Code/crystal_facet_uml/gui/source/resources/type_diag_usecase.png"
   inkscape:export-xdpi="96"
   inkscape:export-ydpi="96">
  <defs
     id="defs4" />
  <sodipodi:namedview
     id="base"
     pagecolor="#ffffff"
     bordercolor="#666666"
     borderopacity="1.0"
     inkscape:pageopacity="0.0"
     inkscape:pageshadow="2"
     inkscape:zoom="19.881398"
     inkscape:cx="18.124731"
     inkscape:cy="11.009346"
     inkscape:document-units="px"
     inkscape:current-layer="layer1"
     showgrid="false"
     inkscape:window-width="1824"
     inkscape:window-height="920"
     inkscape:window-x="0"
     inkscape:window-y="36"
     inkscape:window-maximized="1" />
  <metadata
     id="metadata7">
    <rdf:RDF>
      <cc:Work
         rdf:about="">
        <dc:format>image/svg+xml</dc:format>
        <dc:type
           rdf:resource="http://purl.org/dc/dcmitype/StillImage" />
        <dc:title></dc:title>
      </cc:Work>
    </rdf:RDF>
  </metadata>
  <g
     inkscape:label="Ebene 1"
     inkscape:groupmode="layer"
     id="layer1"
     transform="translate(0,0)">
    <rect
       style="fill:none;stroke:#7f7f7f;stroke-width:1;stroke-miterlimit:4;stroke-dasharray:none;stroke-opacity:1"
       id="rect4554"
       width="29.0"
       height="21.0"
       x="1.5"
       y="1.5" />
    <path
       style="fill:none;stroke:#7f7f7f;stroke-width:1px;stroke-linecap:butt;stroke-linejoin:miter;stroke-opacity:1"
       d="m 1.5,4.5 h 10.0 l 1.0,-1.0 v -2.0 0"
       id="path4556"
       inkscape:connector-curvature="0"
       sodipodi:nodetypes="ccccc" />
    <path
       style="fill:#7f7f7f;fill-opacity:1;stroke:none;stroke-width:1px;stroke-linecap:butt;stroke-linejoin:miter;stroke-opacity:1"
       d="m 8.1483204,7.4518679 2.1628256,1.4083517 c 0,0 2.867002,-1.7101413 8.299215,-0.7544741 2.704223,0.475743 4.979529,3.6214755 4.37595,5.4322135 -0.603579,1.810738 -2.255041,3.972989 -5.884898,3.923265 C 9.7578647,17.360628 8.3879087,14.53303 8.0980221,13.236169 7.1423548,8.9608162 10.160251,8.3572364 10.160251,8.3572364 c 0,0 -4.0582613,0.6881292 -3.1184926,5.7340036 0.4374415,2.348743 3.0081696,4.705747 9.5566716,4.878933 5.581384,0.147609 7.745934,-3.470582 8.198619,-5.583109 C 25.249733,11.274536 23.184505,6.8688903 19.314537,6.2950076 12.703197,5.314603 8.1483204,7.4518679 8.1483204,7.4518679 Z"
       id="path4515"
       inkscape:connector-curvature="0"
       sodipodi:nodetypes="ccsssscssssc" />
  </g>
</svg>
