<?xml version="1.0" encoding="UTF-8"?>
<svg
    width="100%"
    height="100%"
    viewBox="0 0 32 24"
    preserveAspectRatio="xMidYMid meet"
    xmlns="http://www.w3.org/2000/svg"
    version="1.1"
    >
    <path stroke="#7f7f7f" stroke-width="1" fill="none" d="M 3.5,6.5 C 3.5,3.75 5.75,1.5 8.5,1.5 L 23.5,1.5 C 26.25,1.5 28.5,3.75 28.5,6.5 L 28.5,17.5 C 28.5,20.25 26.25,22.5 23.5,22.5 L 8.5,22.5 C 5.75,22.5 3.5,20.25 3.5,17.5 Z " /><path stroke="#7f7f7f" stroke-width="2" fill="none" d="M 10,15 C 10,11.625 12.625,9 16,9 S 22,11.625 22,15 S 19.375,21 16,21 S 10,18.375 10,15 " /><path stroke="#7f7f7f" stroke-width="2" fill="none" d="M 16,11 L 16,19 M 12,15 L 20,15 " />
</svg>
