<?xml version="1.0" encoding="UTF-8"?>
<svg
    width="100%"
    height="100%"
    viewBox="0 0 32 24"
    preserveAspectRatio="xMidYMid meet"
    xmlns="http://www.w3.org/2000/svg"
    version="1.1"
    >
    <path stroke="#7f7f7f" stroke-width="2" fill="none"
        d="M 2,12 C 2,10.375 3.375,9 5,9 S 8,10.375 8,12 S 6.625,15 5,15 S 2,13.625 2,12 "
    />
    <path stroke="#7f7f7f" stroke-width="2" fill="none"
        d="M 12,12 C 12,7 16,3 21,3 S 30,7 30,12 S 26,21 21,21 S 12,17 12,12 "
    />
    <path stroke="#7f7f7f" stroke-width="2" fill="none"
        d="M 16,12 C 16,10.375 17.375,9 19,9 S 22,10.375 22,12 S 20.625,15 19,15 S 16,13.625 16,12 "
    />
</svg>
