<?xml version="1.0" encoding="UTF-8"?>
<svg
    width="100%"
    height="100%"
    viewBox="0 0 32 24"
    preserveAspectRatio="xMidYMid meet"
    xmlns="http://www.w3.org/2000/svg"
    version="1.1"
    >
    <path stroke="#7f7f7f" stroke-width="1" fill="none"
        d="M 20.25,12 c 4.75,0 6.5625,2.0625 6.1875,3.375 c -0.5,1.3125 -3.1875,1.875 -7,-0.875 c 3.8125,2.8125 4.0625,5.5 3,6.375 c -1.1875,0.75 -3.6875,-0.3125 -5.125,-4.875 c 1.4375,4.5 0.0625,6.875 -1.3125,6.9375 c -1.375,-0.0625 -2.75,-2.4375 -1.3125,-6.9375 c -1.4375,4.5 -4,5.625 -5.125,4.875 c -1.0625,-0.875 -0.8125,-3.625 3,-6.375 c -3.8125,2.8125 -6.5,2.1875 -7,0.875 c -0.3125,-1.3125 1.4375,-3.375 6.1875,-3.375 c -4.75,-0 -6.5625,-2.0625 -6.1875,-3.375 c 0.5,-1.3125 3.1875,-1.875 7,0.875 c -3.8125,-2.8125 -4.0625,-5.5 -3,-6.375 c 1.1875,-0.75 3.6875,0.3125 5.125,4.875 c -1.4375,-4.5 -0.0625,-6.875 1.3125,-6.9375 c 1.375,0.0625 2.75,2.4375 1.3125,6.9375 c 1.4375,-4.5 4,-5.625 5.125,-4.875 c 1.0625,0.875 0.8125,3.625 -3,6.375 c 3.8125,-2.8125 6.5,-2.1875 7,-0.875 c 0.3125,1.3125 -1.4375,3.375 -6.1875,3.375 "
    />
    <path stroke="#7f7f7f" stroke-width="1" fill="none"
        d="M 12.75,12 C 12.75,10.25 14.25,8.75 16,8.75 S 19.25,10.25 19.25,12 S 17.75,15.25 16,15.25 S 12.75,13.75 12.75,12 "
    />
</svg>
