<?xml version="1.0" encoding="UTF-8"?>
<svg
    width="100%"
    height="100%"
    viewBox="0 0 32 24"
    preserveAspectRatio="xMidYMid meet"
    xmlns="http://www.w3.org/2000/svg"
    version="1.1"
    >
    <path stroke="#7f7f7f" stroke-width="1" fill="none"
        d="M 4.5,19.5 C 4.5,18.375 5.375,17.5 6.5,17.5 S 8.5,18.375 8.5,19.5 S 7.625,21.5 6.5,21.5 S 4.5,20.625 4.5,19.5 "
    />
    <path stroke="#7f7f7f" stroke-width="1" fill="none"
        d="M 10.5,19.5 C 10.5,18.375 11.375,17.5 12.5,17.5 S 14.5,18.375 14.5,19.5 S 13.625,21.5 12.5,21.5 S 10.5,20.625 10.5,19.5 "
    />
    <path stroke="#7f7f7f" stroke-width="1" fill="none"
        d="M 24.5,19.5 C 24.5,18.375 25.375,17.5 26.5,17.5 S 28.5,18.375 28.5,19.5 S 27.625,21.5 26.5,21.5 S 24.5,20.625 24.5,19.5 "
    />
    <path stroke="#7f7f7f" stroke-width="2" fill="none"
        d="M 1,16 L 3,16 M 15,16 L 23,16 L 23,6 L 28,6 L 30,11 L 30,17 "
    />
</svg>
