<?xml version="1.0" encoding="UTF-8"?>
<svg
    width="100%"
    height="100%"
    viewBox="0 0 32 32"
    preserveAspectRatio="xMidYMid meet"
    xmlns="http://www.w3.org/2000/svg"
    version="1.1"
    >
    <path stroke="none" fill="#ffffff" d="M 0,19 C 10,19 22,19 32,21 L 32,32 L 0,32 Z " /><path stroke="#000000" stroke-width="1" fill="#00ff99" d="m 12.9375,29.3125 c 0,0 0.5,-3.9375 -0.125,-5.375 c -0.625,-1.4375 -1.8125,-0.5625 -2.8125,-2.8125 c -1,-2.25 -1.625,-10.5625 -0.375,-10.6875 c 1.25,-0.125 2,7.625 2,7.625 c 0,0 -0.375,-13.8125 1.0625,-13.6875 c 1.4375,0.125 1.25,11.0625 1.25,11.0625 c 0,0 0.5,-12.5625 1.625,-12.5625 c 1.0625,-0 1.0625,12.3125 1.0625,12.3125 c 0,0 0.625,-10.75 1.625,-10.4375 c 1,0.375 0.75,11.4375 0.75,11.4375 c 0,0 0.1875,-7.625 1.25,-7.6875 c 1.0625,-0.0625 1.25,8.5625 0.9375,11.0625 c -0.3125,2.5 -1.125,2.3125 -1.4375,3.9375 c -0.25,1.625 0.1875,5.75 0.1875,5.75 Z " />
</svg>
