<?xml version="1.0" encoding="UTF-8"?>
<svg
    width="100%"
    height="100%"
    viewBox="0 0 32 32"
    preserveAspectRatio="xMidYMid meet"
    xmlns="http://www.w3.org/2000/svg"
    version="1.1"
    >
    <path stroke="none" fill="#ffffff" d="M 0,21 C 10,19 22,19 32,19 L 32,32 L 0,32 Z " /><path stroke="#000000" stroke-width="1" fill="none" d="M 16,16 l 15,0 m -4,-0 l -2.125,6.4375 M 16,16 l 12.125,8.8125 m -3.25,-2.375 l -5.5,4 M 16,16 l 4.625,14.25 m -1.25,-3.8125 l -6.8125,-0 M 16,16 l -4.625,14.25 m 1.25,-3.8125 l -5.5,-4 M 16,16 l -12.125,8.8125 m 3.25,-2.375 l -2.125,-6.4375 M 16,16 l -15,-0 m 4,0 l 2.125,-6.4375 M 16,16 l -12.125,-8.8125 m 3.25,2.375 l 5.5,-4 M 16,16 l -4.625,-14.25 m 1.25,3.8125 l 6.8125,0 M 16,16 l 4.625,-14.25 m -1.25,3.8125 l 5.5,4 M 16,16 l 12.125,-8.8125 m -3.25,2.375 l 2.125,6.4375 " /><path stroke="#000000" stroke-width="1" fill="none" d="M 5,16 C 5,9.875 9.875,5 16,5 S 27,9.875 27,16 S 22.125,27 16,27 S 5,22.125 5,16 " />
</svg>
