<?xml version="1.0" encoding="UTF-8"?>
<svg
    width="100%"
    height="100%"
    viewBox="0 0 32 32"
    preserveAspectRatio="xMidYMid meet"
    xmlns="http://www.w3.org/2000/svg"
    version="1.1"
    >
    <path stroke="none" fill="#ffffff" d="M 0,23 C 10,23 22,23 32,25 L 32,32 L 0,32 Z " /><path stroke="#000000" stroke-width="1" fill="#00ff99" d="m 16,30 l 0.0625,-5.25 c 0,0 0.1875,-3.5 4.1875,-5.3125 c 4.0625,-1.8125 4,0.5625 1.0625,2.75 c -2.9375,2.1875 -5.5,2.6875 -5.5,2.6875 c 0,0 -0.75,-4.9375 -4,-6.6875 c -3.3125,-1.75 -2.9375,0.5625 -0.8125,3.25 c 2.0625,2.6875 4.9375,3.1875 4.9375,3.1875 l -0.1875,-9.6875 c 0,0 -0.1875,-1.6875 -2,-2.9375 c -1.8125,-1.25 -3.125,-0.25 -1.4375,1.6875 c 1.6875,1.9375 3.5,1.0625 3.5,1.0625 c 0,0 -0.75,-1.9375 2,-3.75 c 2.8125,-1.8125 2.375,0.75 0.6875,2.1875 c -1.625,1.4375 -3,1.75 -3,1.75 " />
</svg>
