<?xml version="1.0" encoding="UTF-8" standalone="no"?>
<!-- Created with Inkscape (http://www.inkscape.org/) -->

<svg
   xmlns:dc="http://purl.org/dc/elements/1.1/"
   xmlns:cc="http://creativecommons.org/ns#"
   xmlns:rdf="http://www.w3.org/1999/02/22-rdf-syntax-ns#"
   xmlns:svg="http://www.w3.org/2000/svg"
   xmlns="http://www.w3.org/2000/svg"
   xmlns:sodipodi="http://sodipodi.sourceforge.net/DTD/sodipodi-0.dtd"
   xmlns:inkscape="http://www.inkscape.org/namespaces/inkscape"
   width="128"
   height="128"
   id="svg2"
   version="1.1"
   inkscape:version="0.48.5 r10040"
   sodipodi:docname="crystal_facet_uml.svg"
   inkscape:export-filename="/home/andi/Code/crystal-facet-uml-code/user_doc/crystal_facet_uml.png"
   inkscape:export-xdpi="90"
   inkscape:export-ydpi="90">
  <defs
     id="defs4" />
  <sodipodi:namedview
     id="base"
     pagecolor="#ffffff"
     bordercolor="#666666"
     borderopacity="1.0"
     inkscape:pageopacity="0.0"
     inkscape:pageshadow="2"
     inkscape:zoom="5.6"
     inkscape:cx="66.366268"
     inkscape:cy="60.981125"
     inkscape:document-units="px"
     inkscape:current-layer="layer1"
     showgrid="false"
     inkscape:window-width="1337"
     inkscape:window-height="1018"
     inkscape:window-x="124"
     inkscape:window-y="82"
     inkscape:window-maximized="0"
     units="px" />
  <metadata
     id="metadata7">
    <rdf:RDF>
      <cc:Work
         rdf:about="">
        <dc:format>image/svg+xml</dc:format>
        <dc:type
           rdf:resource="http://purl.org/dc/dcmitype/StillImage" />
        <dc:title></dc:title>
      </cc:Work>
    </rdf:RDF>
  </metadata>
  <g
     inkscape:label="Ebene 1"
     inkscape:groupmode="layer"
     id="layer1"
     transform="translate(0,-924.3622)">
    <path
       style="fill:none;stroke:#000000;stroke-width:1px;stroke-linecap:butt;stroke-linejoin:miter;stroke-opacity:1"
       d="M 32.321429,55.857143 78.571428,100.5 92.5,37.107142 78.214285,23.178572 62.678572,20.857143 46.607143,25.321428 35.178572,35.142857 z"
       id="path3004"
       inkscape:connector-curvature="0"
       transform="translate(0,924.3622)"
       sodipodi:nodetypes="cccccccc" />
    <path
       style="fill:none;stroke:#000000;stroke-width:1px;stroke-linecap:butt;stroke-linejoin:miter;stroke-opacity:1"
       d="M 78.392857,23.357143 69.821429,33.178571 50.178572,38.892857 35.535714,35.321428"
       id="path3006"
       inkscape:connector-curvature="0"
       transform="translate(0,924.3622)"
       sodipodi:nodetypes="cccc" />
    <path
       style="fill:none;stroke:#000000;stroke-width:1px;stroke-linecap:butt;stroke-linejoin:miter;stroke-opacity:1"
       d="M 33.035714,55.678571 50.714286,60.857143 80,52.642857 92.678571,37.285714"
       id="path3008"
       inkscape:connector-curvature="0"
       transform="translate(0,924.3622)"
       sodipodi:nodetypes="cccc" />
    <path
       style="fill:none;stroke:#000000;stroke-width:1px;stroke-linecap:butt;stroke-linejoin:miter;stroke-opacity:1"
       d="M 49.642857,39.25 51.071429,61.392857 78.75,100.5"
       id="path3010"
       inkscape:connector-curvature="0"
       transform="translate(0,924.3622)"
       sodipodi:nodetypes="ccc" />
    <path
       style="fill:none;stroke:#000000;stroke-width:1px;stroke-linecap:butt;stroke-linejoin:miter;stroke-opacity:1"
       d="M 69.285715,32.821429 79.821429,52.285714 78.571428,100.14286"
       id="path3012"
       inkscape:connector-curvature="0"
       transform="translate(0,924.3622)"
       sodipodi:nodetypes="ccc" />
    <path
       sodipodi:type="star"
       style="fill:#00ff00;fill-opacity:1;stroke:none"
       id="path3784"
       sodipodi:sides="5"
       sodipodi:cx="20.535713"
       sodipodi:cy="24.071428"
       sodipodi:r1="3.1237242"
       sodipodi:r2="1.5618621"
       sodipodi:arg1="1.0303768"
       sodipodi:arg2="1.6586954"
       inkscape:flatsided="false"
       inkscape:rounded="0"
       inkscape:randomized="0"
       d="m 22.142856,26.75 -1.744252,-1.122739 -1.913729,0.800375 0.528785,-2.005828 -1.352577,-1.572735 2.071059,-0.11693 1.07779,-1.772379 0.7512,1.93356 2.018688,0.477345 -1.606792,1.311937 z"
       transform="translate(36.607143,977.39791)"
       inkscape:transform-center-x="-0.0847383"
       inkscape:transform-center-y="-0.21654662" />
    <path
       transform="translate(16.343835,951.18589)"
       sodipodi:type="star"
       style="fill:#00ff00;fill-opacity:1;stroke:none"
       id="path3784-7"
       sodipodi:sides="5"
       sodipodi:cx="20.535713"
       sodipodi:cy="24.071428"
       sodipodi:r1="3.1237242"
       sodipodi:r2="1.5618621"
       sodipodi:arg1="1.0303768"
       sodipodi:arg2="1.6586954"
       inkscape:flatsided="false"
       inkscape:rounded="0"
       inkscape:randomized="0"
       d="m 22.142856,26.75 -1.744252,-1.122739 -1.913729,0.800375 0.528785,-2.005828 -1.352577,-1.572735 2.071059,-0.11693 1.07779,-1.772379 0.7512,1.93356 2.018688,0.477345 -1.606792,1.311937 z"
       inkscape:transform-center-x="-0.0847383"
       inkscape:transform-center-y="-0.21654662" />
    <path
       transform="translate(26.165264,933.86446)"
       sodipodi:type="star"
       style="fill:#00ff00;fill-opacity:1;stroke:none"
       id="path3784-5"
       sodipodi:sides="5"
       sodipodi:cx="20.535713"
       sodipodi:cy="24.071428"
       sodipodi:r1="3.1237242"
       sodipodi:r2="1.5618621"
       sodipodi:arg1="1.0303768"
       sodipodi:arg2="1.6586954"
       inkscape:flatsided="false"
       inkscape:rounded="0"
       inkscape:randomized="0"
       d="m 22.142856,26.75 -1.744252,-1.122739 -1.913729,0.800375 0.528785,-2.005828 -1.352577,-1.572735 2.071059,-0.11693 1.07779,-1.772379 0.7512,1.93356 2.018688,0.477345 -1.606792,1.311937 z"
       inkscape:transform-center-x="-0.0847383"
       inkscape:transform-center-y="-0.21654662" />
    <path
       transform="translate(34.915263,954.75732)"
       sodipodi:type="star"
       style="fill:#00ff00;fill-opacity:1;stroke:none"
       id="path3784-3"
       sodipodi:sides="5"
       sodipodi:cx="20.535713"
       sodipodi:cy="24.071428"
       sodipodi:r1="3.1237242"
       sodipodi:r2="1.5618621"
       sodipodi:arg1="1.0303768"
       sodipodi:arg2="1.6586954"
       inkscape:flatsided="false"
       inkscape:rounded="0"
       inkscape:randomized="0"
       d="m 22.142856,26.75 -1.744252,-1.122739 -1.913729,0.800375 0.528785,-2.005828 -1.352577,-1.572735 2.071059,-0.11693 1.07779,-1.772379 0.7512,1.93356 2.018688,0.477345 -1.606792,1.311937 z"
       inkscape:transform-center-x="-0.0847383"
       inkscape:transform-center-y="-0.21654662" />
    <path
       transform="translate(65.093834,937.9716)"
       sodipodi:type="star"
       style="fill:#00ff00;fill-opacity:1;stroke:none"
       id="path3784-50"
       sodipodi:sides="5"
       sodipodi:cx="20.535713"
       sodipodi:cy="24.071428"
       sodipodi:r1="3.1237242"
       sodipodi:r2="1.5618621"
       sodipodi:arg1="1.0303768"
       sodipodi:arg2="1.6586954"
       inkscape:flatsided="false"
       inkscape:rounded="0"
       inkscape:randomized="0"
       d="m 22.142856,26.75 -1.744252,-1.122739 -1.913729,0.800375 0.528785,-2.005828 -1.352577,-1.572735 2.071059,-0.11693 1.07779,-1.772379 0.7512,1.93356 2.018688,0.477345 -1.606792,1.311937 z"
       inkscape:transform-center-x="-0.0847383"
       inkscape:transform-center-y="-0.21654662" />
    <path
       transform="translate(48.486692,981.36446)"
       sodipodi:type="star"
       style="fill:#00ff00;fill-opacity:1;stroke:none"
       id="path3784-0"
       sodipodi:sides="5"
       sodipodi:cx="20.535713"
       sodipodi:cy="24.071428"
       sodipodi:r1="3.1237242"
       sodipodi:r2="1.5618621"
       sodipodi:arg1="1.0303768"
       sodipodi:arg2="1.6586954"
       inkscape:flatsided="false"
       inkscape:rounded="0"
       inkscape:randomized="0"
       d="m 22.142856,26.75 -1.744252,-1.122739 -1.913729,0.800375 0.528785,-2.005828 -1.352577,-1.572735 2.071059,-0.11693 1.07779,-1.772379 0.7512,1.93356 2.018688,0.477345 -1.606792,1.311937 z"
       inkscape:transform-center-x="-0.0847383"
       inkscape:transform-center-y="-0.21654662" />
    <path
       transform="translate(61.522406,971.7216)"
       sodipodi:type="star"
       style="fill:#00ff00;fill-opacity:1;stroke:none"
       id="path3784-8"
       sodipodi:sides="5"
       sodipodi:cx="20.535713"
       sodipodi:cy="24.071428"
       sodipodi:r1="3.1237242"
       sodipodi:r2="1.5618621"
       sodipodi:arg1="1.0303768"
       sodipodi:arg2="1.6586954"
       inkscape:flatsided="false"
       inkscape:rounded="0"
       inkscape:randomized="0"
       d="m 22.142856,26.75 -1.744252,-1.122739 -1.913729,0.800375 0.528785,-2.005828 -1.352577,-1.572735 2.071059,-0.11693 1.07779,-1.772379 0.7512,1.93356 2.018688,0.477345 -1.606792,1.311937 z"
       inkscape:transform-center-x="-0.0847383"
       inkscape:transform-center-y="-0.21654662" />
    <path
       transform="matrix(0.66812423,0,0,0.72243915,35.597977,939.14636)"
       sodipodi:type="star"
       style="fill:#ffff00;fill-opacity:1;stroke:none"
       id="path3784-5-8"
       sodipodi:sides="5"
       sodipodi:cx="20.535713"
       sodipodi:cy="24.071428"
       sodipodi:r1="3.1237242"
       sodipodi:r2="1.5618621"
       sodipodi:arg1="1.0303768"
       sodipodi:arg2="1.6586954"
       inkscape:flatsided="false"
       inkscape:rounded="0"
       inkscape:randomized="0"
       d="m 22.142856,26.75 -1.744252,-1.122739 -1.913729,0.800375 0.528785,-2.005828 -1.352577,-1.572735 2.071059,-0.11693 1.07779,-1.772379 0.7512,1.93356 2.018688,0.477345 -1.606792,1.311937 z"
       inkscape:transform-center-x="-0.056615781"
       inkscape:transform-center-y="-0.15644155" />
    <path
       transform="matrix(0.66812423,0,0,0.72243915,67.83012,981.02135)"
       sodipodi:type="star"
       style="fill:#ffff00;fill-opacity:1;stroke:none"
       id="path3784-5-8-9"
       sodipodi:sides="5"
       sodipodi:cx="20.535713"
       sodipodi:cy="24.071428"
       sodipodi:r1="3.1237242"
       sodipodi:r2="1.5618621"
       sodipodi:arg1="1.0303768"
       sodipodi:arg2="1.6586954"
       inkscape:flatsided="false"
       inkscape:rounded="0"
       inkscape:randomized="0"
       d="m 22.142856,26.75 -1.744252,-1.122739 -1.913729,0.800375 0.528785,-2.005828 -1.352577,-1.572735 2.071059,-0.11693 1.07779,-1.772379 0.7512,1.93356 2.018688,0.477345 -1.606792,1.311937 z"
       inkscape:transform-center-x="-0.056615781"
       inkscape:transform-center-y="-0.15644155" />
    <path
       transform="matrix(0.66812423,0,0,0.72243915,56.758691,983.8785)"
       sodipodi:type="star"
       style="fill:#ffff00;fill-opacity:1;stroke:none"
       id="path3784-5-8-2"
       sodipodi:sides="5"
       sodipodi:cx="20.535713"
       sodipodi:cy="24.071428"
       sodipodi:r1="3.1237242"
       sodipodi:r2="1.5618621"
       sodipodi:arg1="1.0303768"
       sodipodi:arg2="1.6586954"
       inkscape:flatsided="false"
       inkscape:rounded="0"
       inkscape:randomized="0"
       d="m 22.142856,26.75 -1.744252,-1.122739 -1.913729,0.800375 0.528785,-2.005828 -1.352577,-1.572735 2.071059,-0.11693 1.07779,-1.772379 0.7512,1.93356 2.018688,0.477345 -1.606792,1.311937 z"
       inkscape:transform-center-x="-0.056615781"
       inkscape:transform-center-y="-0.15644155" />
    <path
       transform="matrix(0.66812423,0,0,0.72243915,42.294405,980.48564)"
       sodipodi:type="star"
       style="fill:#ffff00;fill-opacity:1;stroke:none"
       id="path3784-5-8-7"
       sodipodi:sides="5"
       sodipodi:cx="20.535713"
       sodipodi:cy="24.071428"
       sodipodi:r1="3.1237242"
       sodipodi:r2="1.5618621"
       sodipodi:arg1="1.0303768"
       sodipodi:arg2="1.6586954"
       inkscape:flatsided="false"
       inkscape:rounded="0"
       inkscape:randomized="0"
       d="m 22.142856,26.75 -1.744252,-1.122739 -1.913729,0.800375 0.528785,-2.005828 -1.352577,-1.572735 2.071059,-0.11693 1.07779,-1.772379 0.7512,1.93356 2.018688,0.477345 -1.606792,1.311937 z"
       inkscape:transform-center-x="-0.056615781"
       inkscape:transform-center-y="-0.15644155" />
    <path
       transform="matrix(0.66812423,0,0,0.72243915,70.687263,947.09278)"
       sodipodi:type="star"
       style="fill:#ffff00;fill-opacity:1;stroke:none"
       id="path3784-5-8-8"
       sodipodi:sides="5"
       sodipodi:cx="20.535713"
       sodipodi:cy="24.071428"
       sodipodi:r1="3.1237242"
       sodipodi:r2="1.5618621"
       sodipodi:arg1="1.0303768"
       sodipodi:arg2="1.6586954"
       inkscape:flatsided="false"
       inkscape:rounded="0"
       inkscape:randomized="0"
       d="m 22.142856,26.75 -1.744252,-1.122739 -1.913729,0.800375 0.528785,-2.005828 -1.352577,-1.572735 2.071059,-0.11693 1.07779,-1.772379 0.7512,1.93356 2.018688,0.477345 -1.606792,1.311937 z"
       inkscape:transform-center-x="-0.056615781"
       inkscape:transform-center-y="-0.15644155" />
    <path
       transform="matrix(0.66812423,0,0,0.72243915,44.258691,959.59278)"
       sodipodi:type="star"
       style="fill:#ffff00;fill-opacity:1;stroke:none"
       id="path3784-5-8-4"
       sodipodi:sides="5"
       sodipodi:cx="20.535713"
       sodipodi:cy="24.071428"
       sodipodi:r1="3.1237242"
       sodipodi:r2="1.5618621"
       sodipodi:arg1="1.0303768"
       sodipodi:arg2="1.6586954"
       inkscape:flatsided="false"
       inkscape:rounded="0"
       inkscape:randomized="0"
       d="m 22.142856,26.75 -1.744252,-1.122739 -1.913729,0.800375 0.528785,-2.005828 -1.352577,-1.572735 2.071059,-0.11693 1.07779,-1.772379 0.7512,1.93356 2.018688,0.477345 -1.606792,1.311937 z"
       inkscape:transform-center-x="-0.056615781"
       inkscape:transform-center-y="-0.15644155" />
    <path
       transform="matrix(0.66812423,0,0,0.72243915,25.687263,956.3785)"
       sodipodi:type="star"
       style="fill:#ffff00;fill-opacity:1;stroke:none"
       id="path3784-5-8-5"
       sodipodi:sides="5"
       sodipodi:cx="20.535713"
       sodipodi:cy="24.071428"
       sodipodi:r1="3.1237242"
       sodipodi:r2="1.5618621"
       sodipodi:arg1="1.0303768"
       sodipodi:arg2="1.6586954"
       inkscape:flatsided="false"
       inkscape:rounded="0"
       inkscape:randomized="0"
       d="m 22.142856,26.75 -1.744252,-1.122739 -1.913729,0.800375 0.528785,-2.005828 -1.352577,-1.572735 2.071059,-0.11693 1.07779,-1.772379 0.7512,1.93356 2.018688,0.477345 -1.606792,1.311937 z"
       inkscape:transform-center-x="-0.056615781"
       inkscape:transform-center-y="-0.15644155" />
  </g>
</svg>
